<?xml version="1.0" encoding="UTF-8" standalone="no"?>
<svg
   xmlns:dc="http://purl.org/dc/elements/1.1/"
   xmlns:cc="http://creativecommons.org/ns#"
   xmlns:rdf="http://www.w3.org/1999/02/22-rdf-syntax-ns#"
   xmlns:svg="http://www.w3.org/2000/svg"
   xmlns="http://www.w3.org/2000/svg"
   xmlns:sodipodi="http://sodipodi.sourceforge.net/DTD/sodipodi-0.dtd"
   xmlns:inkscape="http://www.inkscape.org/namespaces/inkscape"
   version="1.1"
   viewBox="0 0 226.67 261.87"
   height="989.71"
   width="856.71"
   id="svg56"
   sodipodi:docname="Nîmes_Olympique_logo_2018.svg"
   inkscape:version="0.92.4 (5da689c313, 2019-01-14)">
  <metadata
     id="metadata60">
    <rdf:RDF>
      <cc:Work
         rdf:about="">
        <dc:format>image/svg+xml</dc:format>
        <dc:type
           rdf:resource="http://purl.org/dc/dcmitype/StillImage" />
        <dc:title></dc:title>
      </cc:Work>
    </rdf:RDF>
  </metadata>
  <sodipodi:namedview
     pagecolor="#ffffff"
     bordercolor="#666666"
     borderopacity="1"
     objecttolerance="10"
     gridtolerance="10"
     guidetolerance="10"
     inkscape:pageopacity="0"
     inkscape:pageshadow="2"
     inkscape:window-width="1366"
     inkscape:window-height="705"
     id="namedview58"
     showgrid="false"
     fit-margin-top="1"
     fit-margin-right="1"
     fit-margin-bottom="1"
     fit-margin-left="1"
     inkscape:zoom="0.44533392"
     inkscape:cx="84.543815"
     inkscape:cy="549.47308"
     inkscape:window-x="-8"
     inkscape:window-y="-8"
     inkscape:window-maximized="1"
     inkscape:current-layer="svg56" />
  <defs
     id="defs2" />
  <g
     id="g133"
     transform="translate(-155.90142,0.55480932)">
    <path
       inkscape:connector-curvature="0"
       id="path6"
       d="m 239.12999,2.739535 c 3.806,-0.508 7.154,-2.67 10.922,-3.344 2.004,-0.254 3.937,0.54 5.778,1.228 5.394,2.201 10.368,5.295 15.734,7.567 5.721,2.508 11.761,4.431 18.011,5.062 7.97,0.85 16.01,0.985 24.06,1.157 4.34,0.04 8.68,0.244 13.05,0.08 5.58,-0.223 11.04,-1.433 16.37,-3.031 1.34,-0.543 2.68,0.18 3.88,0.716 2.79,1.334 5.47,2.918 7.9,4.823 1.03,0.839 2.08,1.714 2.72,2.903 0.56,1.013 -0.18,2.071 -0.57,3.009 -1.62,3.68 -4.23,6.823 -7.05,9.645 -7.83,-1.347 -15.7,-2.025 -23.6,-2.705 -12.67,-1.013 -25.4,-1.75 -38.1,-2.258 -16.12,-0.783 -32.26,-0.723 -48.365,0.09 -14.89,0.794 -29.82,2.106 -44.407,5.323 -5.966,1.426 -12.023,3.01 -17.3467,6.149 -1.9508,1.246 -4.0957,2.851 -4.4979,5.289 -0.254,2.247 1.4782,4.046 3.1468,5.281 3.9194,2.783 8.5798,4.215 13.1338,5.588 -0.928,-1.754 -1.058,-3.99 0.117,-5.662 1.958,-2.872 5.249,-4.403 8.361,-5.701 7.732,-2.999 15.966,-4.438 24.161,-5.511 17.34,-2.106 34.859,-2.092 52.287,-1.446 20.43,0.829 40.78,2.78 61.03,5.475 2.54,0.388 5.08,0.635 7.59,1.108 l 0.14,0.448 c -22.97,-2.156 -46.07,-3.256 -69.16,-3.059 -16.598,0.194 -33.242,0.843 -49.689,3.242 -4.604,0.706 -9.218,1.5 -13.681,2.861 -1.95,0.621 -3.919,1.316 -5.602,2.502 -0.871,0.624 -1.742,1.538 -1.686,2.688 0.08,1.203 0.998,2.106 1.87,2.836 2.222,1.732 4.865,2.801 7.475,3.807 1.387,0.483 2.759,1.09 4.241,1.22 16.732,1.778 33.574,2.339 50.394,2.343 20.808,-0.04 41.648,-2.015 62.078,-5.948 8.22,-1.591 16.41,-3.514 24.41,-5.934 5.58,-1.715 11.12,-3.616 16.41,-6.145 2.26,-1.091 4.48,-2.294 6.45,-3.835 0,9.765 0.18,19.54 -0.24,29.302 -1.27,31.703005 -8.12,63.413005 -21.84,92.113005 -11.68,24.56 -28.33,46.69 -48.61,64.79 -11.93,10.69 -25.04,20.02 -38.944,27.95 -27.382,-15.53001 -51.668,-36.77001 -69.854,-62.53001 -15.9699,-22.48 -27.1107,-48.25 -33.2843,-75.08999 -2.4197,-10.47 -4.1307,-21.090005 -5.1687,-31.778005 0.254,0 0.769,0.03 1.027,0.03 1.965,15.658005 5.4364,31.158005 10.8551,45.997995 8.188,22.66 21.0859,43.63 37.8669,60.92 11.568,12.03 24.893,22.27 39.085,31.02 6.378,4.01 13.01,7.6 19.452,11.5 6.515,-3.88999 13.195,-7.5 19.625,-11.56 10.62,-6.59 20.68,-14.16 29.71,-22.83 9.88,-9.46 18.48,-20.2 25.61,-31.86 7.76,-12.65 13.76,-26.33 18.2,-40.47 7.31,-23.29 10.45,-47.712995 11.05,-72.061995 -7.55,3.059 -15.53,4.784 -23.5,6.29 -17.46,3.168 -35.17,4.777 -52.88,5.697 -15.74,0.805 -31.508,0.847 -47.26,0.459 -16.619,-0.464 -33.278,-1.378 -49.71,-4.048 -7.938,-1.348 -15.879,-3.066 -23.3648,-6.093 -5.2459,-2.169 -10.5129,-5.069 -13.8432,-9.818 -2.773,-3.909 -3.373,-8.918 -2.939,-13.582 0.406,-3.535 1.295,-7.006 2.456,-10.364 3.1325,-1.154 6.3251,-2.177 9.4225,-3.415 2.89282,-2.886 5.5916,-5.98 8.4209,-8.933 4.6566,-0.18 9.3666,-0.06 13.9946,-0.402 2.752,-2.677 5.401,-5.472 8.111,-8.195 4.512,0.953 9.003,2.043 13.525,2.942 8.315,-1.489 16.651,-2.953 25.062,-3.831 m 8.505,3.969 c -1.517,0.568 -2.977,1.263 -4.48,1.855 -0.639,0.293 -1.394,0.491 -1.806,1.105 -0.628,0.79 -0.406,2.056 0.451,2.593 1.478,1.001 3.034,1.89 4.544,2.85 1.524,0.974 3.355,1.408 5.158,1.284 6.251,-0.384 12.502,-0.765 18.75,-1.175 -6.078,-2.765 -12.185,-5.468 -18.271,-8.219 -1.34,-0.657 -2.938,-0.819 -4.346,-0.293 z"
       style="fill:#e40613;stroke-width:0.35278001" />
    <path
       inkscape:connector-curvature="0"
       id="path8"
       d="m 233.84099,81.169535 c 0.537,-0.606 1.44,-0.285 2.149,-0.37 1.125,0.09 2.321,-0.173 3.404,0.145 2.35,2.229 4.597,4.579 6.904,6.861 -1.972,0 -3.94,0.05 -5.909,0 -1.206,-1.206 -2.441,-2.381 -3.683,-3.549 -1.242,1.147 -2.42,2.371 -3.686,3.493 -1.927,0.215 -3.881,0.04 -5.818,0.1 2.205,-2.229 4.431,-4.438 6.639,-6.657 z"
       style="fill:#e40613;stroke-width:0.35278001" />
    <path
       inkscape:connector-curvature="0"
       id="path10"
       d="m 323.58499,92.215535 c 4.76,-2.68 10.69,-2.35 15.7,-0.61 0.1,2.28 0,4.56 0,6.84 -2.68,-1.45 -5.71,-2.45 -8.78,-2.08 -1.27,0.12 -2.72,0.77 -3,2.12 -0.28,1.21 0.7,2.180005 1.66,2.750005 2.15,1.27 4.48,2.33 6.63,3.6 1.94,1.16 3.77,2.71 4.65,4.85 1.17,3.06 0.39,6.79 -1.97,9.08 -1.87,1.78999 -4.45,2.65999 -6.99,2.93999 -3.74,0.40001 -7.51,-0.18999 -11.07,-1.43 0,-2.37 0,-4.75 0,-7.12 2.75,1.8 6.1,2.85 9.42,2.63 1.34,-0.11 2.96,-0.72 3.31,-2.18 0.32,-1.1 -0.42,-2.13 -1.3,-2.7 -3.21,-2.14 -7.13,-3.23 -9.95,-5.94 -3.6,-3.5 -2.75,-10.269995 1.66,-12.749995 z"
       style="fill:#e40613;stroke-width:0.35278001" />
    <path
       inkscape:connector-curvature="0"
       id="path12"
       d="m 193.49399,90.765535 c 2.762,0 5.525,0 8.287,0 0.596,-0.11 0.818,0.53 1.153,0.89 4.823,6.19 9.674,12.349995 14.514,18.530005 0,-6.48001 0,-12.950005 0,-19.430005 2.434,0 4.868,0 7.302,0 0,10.190005 0,20.380005 0,30.570005 -2.444,0 -4.886,0 -7.327,0 -4.695,-5.89 -9.437,-11.73001 -14.132,-17.62001 0,5.88 0,11.75 0,17.63 -2.438,0 -4.876,0 -7.31,0 0,-8.88 0.04,-17.76 -0.04,-26.639995 -0.667,-1.4 -1.958,-2.44 -2.466,-3.92 z"
       style="fill:#e40613;stroke-width:0.35278001" />
    <path
       inkscape:connector-curvature="0"
       id="path14"
       d="m 233.13899,90.765535 c 2.435,0 4.869,0 7.307,0 0,10.180005 0,20.370005 0,30.560005 -2.435,0 -4.869,0 -7.299,0 0,-10.19 0,-20.38 0,-30.570005 z"
       style="fill:#e40613;stroke-width:0.35278001" />
    <path
       inkscape:connector-curvature="0"
       id="path16"
       d="m 246.42199,90.765535 c 3.781,0 7.563,0 11.345,0 3.2,7.48 6.474,14.939995 9.656,22.430005 3.199,-7.48 6.402,-14.950005 9.622,-22.430005 2.96,0 5.93,0 8.9,0 0,10.189995 0,20.379995 0,30.560005 -2.44,0 -4.87,0 -7.3,0 0,-6.33 0,-12.65001 0,-18.98001 -2.67,6.33 -5.38,12.64001 -8.046,18.97 -2.131,0 -4.262,0 -6.393,0 -2.638,-6.32 -5.411,-12.58 -7.983,-18.93 -0.141,6.31 0,12.63 -0.07,18.94 -2.437,0 -4.871,0 -7.306,0 -0.04,-8.94 0.05,-17.87 -0.04,-26.799995 -0.663,-1.33 -1.901,-2.33 -2.356,-3.76 z"
       style="fill:#e40613;stroke-width:0.35278001" />
    <path
       inkscape:connector-curvature="0"
       id="path18"
       d="m 294.33499,90.765535 c 6.6,0 13.2,0 19.83,0 0,2.06 0,4.12 0,6.18 -4.2,0 -8.36,0 -12.56,0 0,1.97 0,3.940005 0,5.920005 3.84,0 7.69,0 11.53,0 0,2.05 0,4.11 0,6.16 -3.84,0 -7.69,0 -11.53,0 0,2.04 0,4.08 0,6.12 4.16,0 8.36,0 12.52,0 0,2.05999 0,4.12 0,6.17 -6.63,0 -13.23,0 -19.83,0 0,-10.18 0,-20.37 0,-30.550005 z"
       style="fill:#e40613;stroke-width:0.35278001" />
    <path
       inkscape:connector-curvature="0"
       id="path20"
       d="m 214.61099,132.53553 c 2.629,-0.81999 5.807,0.18001 7.208,2.62001 1.555,2.56 0.959,6.22999 -1.457,8.03999 -2.837,2.28 -7.652,1.46001 -9.317,-1.86 -1.828,-3.22 -0.07,-7.84 3.566,-8.8 m 0.727,1.82 c -3.492,0.92 -3.768,6.43 -0.501,7.82 2.452,1.29 5.638,-0.72 5.631,-3.46 0.37,-2.73 -2.456,-5.29 -5.13,-4.36 z"
       style="fill:#e40613;stroke-width:0.35278001" />
    <path
       inkscape:connector-curvature="0"
       id="path22"
       d="m 226.67699,132.47553 c 0.694,0 1.397,0 2.099,0 0,3.30001 0,6.6 0,9.90001 2.074,0 4.152,0 6.226,0 0,0.62999 0,1.25999 0,1.9 -2.773,0 -5.546,0 -8.315,0 0,-3.93001 0,-7.87 0,-11.80001 z"
       style="fill:#e40613;stroke-width:0.35278001" />
    <path
       inkscape:connector-curvature="0"
       id="path24"
       d="m 235.21699,132.48553 c 0.819,0 1.644,0 2.47,0 1.129,1.72 2.183,3.49 3.326,5.2 1.076,-1.74 2.205,-3.44 3.285,-5.18 0.808,0 1.616,0 2.431,0 -1.528,2.35 -3.126,4.66 -4.622,7.04 -0.197,1.58 -0.03,3.19 -0.09,4.78 -0.706,0 -1.408,0 -2.106,0 -0.04,-1.54 0.06,-3.08 -0.04,-4.61 -1.432,-2.47 -3.104,-4.79 -4.653,-7.19 z"
       style="fill:#e40613;stroke-width:0.35278001" />
    <path
       inkscape:connector-curvature="0"
       id="path26"
       d="m 250.03799,132.47553 c 0.737,0 1.474,0 2.219,0 1.217,1.83001 2.381,3.7 3.587,5.54 1.196,-1.84 2.385,-3.68 3.553,-5.54 0.748,0 1.496,0 2.251,0 0.03,3.94 0,7.88 0,11.82 -0.713,0 -1.419,0 -2.124,0 0.04,-2.83 0.04,-5.65 0,-8.48 -1.189,1.92 -2.484,3.76 -3.74,5.63 -1.238,-1.84 -2.455,-3.69 -3.7,-5.52 0,2.79 0,5.57 0,8.36 -0.699,0 -1.394,0 -2.082,0 0.04,-3.93 0,-7.87 0,-11.8 z"
       style="fill:#e40613;stroke-width:0.35278001" />
    <path
       inkscape:connector-curvature="0"
       id="path28"
       d="m 266.18799,132.47553 c 2.325,0.14 4.784,-0.4 7.007,0.46001 2.56,1.06 2.9,5.00999 0.68,6.59 -1.59,1.21 -3.708,0.94 -5.581,0.96 0,1.26 0,2.52 0,3.78 -0.702,0 -1.404,0 -2.099,0 0,-3.94 0,-7.87 0,-11.81 m 2.095,6.1 c 1.292,0 2.706,0.25999 3.905,-0.35 1.35,-0.65 1.36,-2.9 0,-3.53 -1.223,-0.52 -2.599,-0.28 -3.887,-0.34 0,1.41 0,2.82 0,4.22 z"
       style="fill:#e40613;stroke-width:0.35278001" />
    <path
       inkscape:connector-curvature="0"
       id="path30"
       d="m 279.06499,132.47553 c 0.7,0 1.39,0 2.1,0 0,3.93001 0,7.87 0,11.81 -0.71,0 -1.41,0 -2.1,0 0,-3.94 0,-7.87999 0,-11.81999 z"
       style="fill:#e40613;stroke-width:0.35278001" />
    <path
       inkscape:connector-curvature="0"
       id="path32"
       d="m 286.89499,134.21553 c 2.33,-2.62 6.95,-2.6 9.24,0.1 1.91,2.09 1.98,5.45 0.35,7.74 0.46,0.38 0.89,0.78 1.31,1.19 -0.46,0.47 -0.88,0.95 -1.31,1.44 -0.46,-0.39 -0.91,-0.79 -1.34,-1.21 -2.22,1.33 -5.22,1.48 -7.37,-0.1 -2.93,-1.98 -3.28,-6.6 -0.88,-9.13 m 1.8,1.11 c -1.87,1.82 -1.52,5.35 0.77,6.67 1.2,0.79 2.75,0.63 4.02,0.1 -0.63,-0.64 -1.34,-1.23 -2.01,-1.81 0.43,-0.51 0.89,-1.02 1.34,-1.53 0.71,0.63 1.38,1.26 2.09,1.88 0.81,-1.6 0.77,-3.64 -0.43,-5.03 -1.37,-1.73 -4.27,-1.87 -5.78,-0.26 z"
       style="fill:#e40613;stroke-width:0.35278001" />
    <path
       inkscape:connector-curvature="0"
       id="path34"
       d="m 301.46499,132.47553 c 0.7,0 1.41,0 2.11,0 0.1,2.65001 -0.21,5.33001 0.15,7.97 0.49,2.76 5.11,2.80001 5.64,0 0.32,-2.65 0,-5.34 0.14,-8 0.71,0 1.38,0 2.08,0 0,2.42 0,4.84 0,7.26 -0.1,1.72 -0.95,3.54 -2.61,4.24 -2.54,1.16 -6.42,0.36001 -7.2,-2.66 -0.63,-2.9 -0.17,-5.9 -0.31,-8.84 z"
       style="fill:#e40613;stroke-width:0.35278001" />
    <path
       inkscape:connector-curvature="0"
       id="path36"
       d="m 315.92499,132.47553 c 2.93,0 5.86,0 8.79,0 0,0.62 0,1.24001 0,1.87 -2.23,0 -4.45,0 -6.67,0 0,1.01 0,2.03001 0,3.04 1.94,0 3.91,0 5.89,0 0,0.63 0,1.26 0,1.89 -1.97,0 -3.95,0 -5.92,0 0,1.05 0,2.11 0,3.16 2.26,0 4.48,0 6.74,0 0,0.62 0,1.25 0,1.87 -2.96,0 -5.93,0 -8.89,0 0,-3.94 0,-7.87 0,-11.81 z"
       style="fill:#e40613;stroke-width:0.35278001" />
    <path
       inkscape:connector-curvature="0"
       id="path38"
       d="m 229.48099,163.91553 c 4.315,-3.13999 10.516,-3.31 15.096,-0.63 2.525,1.45 4.522,4.15001 4.434,7.16 0.03,7.89 0,15.78 0,23.67 -8.195,-1.62 -16.196,-4.65 -23.044,-9.49 0,-4.72 0,-9.45 0,-14.18 -0.06,-2.61 1.436,-5.03 3.504,-6.53 z"
       style="fill:#e40613;stroke-width:0.35278001" />
    <path
       inkscape:connector-curvature="0"
       id="path40"
       d="m 260.76599,163.12554 c 4.505,-2.47 10.456,-2.30001 14.679,0.68999 2.15,1.49001 3.71,3.97 3.64,6.64 0,8.23 0,16.46 0,24.7 -7.658,0.89 -15.416,0.88 -23.082,0.1 0.04,-8.26 0.04,-16.53 0.05,-24.79 -0.08,-3.12 2.067,-5.86 4.706,-7.3 z"
       style="fill:#e40613;stroke-width:0.35278001" />
    <path
       inkscape:connector-curvature="0"
       id="path42"
       d="m 290.66499,163.08553 c 4.17,-2.25 9.49,-2.23 13.62,0.1 2.5,1.4 4.59,3.96 4.62,6.94 0,4.68 0,9.36 0,14.04 -6.81,4.97 -14.78,8.16 -23,9.89 0,-7.98 0,-15.97 0,-23.95 0.1,-3.02 2.19,-5.61 4.76,-6.99 z"
       style="fill:#e40613;stroke-width:0.35278001" />
    <path
       inkscape:connector-curvature="0"
       id="path44"
       d="m 250.94799,206.47553 c 1.46,-0.41999 2.907,-1.00999 4.459,-0.9 0,3.42 0,6.85 0,10.27 -0.744,0 -1.485,0 -2.219,0 -0.03,-2.65 0,-5.3 0,-7.94999 -0.596,0.13999 -1.189,0.28 -1.778,0.41 -0.155,-0.61001 -0.311,-1.23 -0.459,-1.85 z"
       style="fill:#e40613;stroke-width:0.35278001" />
    <path
       inkscape:connector-curvature="0"
       id="path46"
       d="m 258.96599,206.49553 c 1.214,-1.07 3.027,-1.22 4.516,-0.7 1.383,0.53 2.201,1.99 2.325,3.42 0.222,1.98 0,4.28 -1.489,5.75 -1.714,1.6 -4.515,1.29 -6.265,-0.1 0.391,-0.58 0.786,-1.15 1.185,-1.73 0.903,0.58001 2.053,1.17 3.126,0.65 0.779,-0.37 0.963,-1.28 1.234,-2.00999 -1.4,0.83 -3.266,0.83 -4.607,-0.11001 -1.559,-1.24 -1.489,-3.88999 -0.03,-5.16999 m 2.113,1.08 c -0.843,0.24 -1.189,1.24 -0.875,2.02 0.632,1.35 3.112,1.21 3.376,-0.34 0.247,-1.36 -1.379,-2.17 -2.501,-1.68 z"
       style="fill:#e40613;stroke-width:0.35278001" />
    <path
       inkscape:connector-curvature="0"
       id="path48"
       d="m 268.09599,205.68553 c 2.297,0 4.589,0 6.889,0 0,0.55 0,1.11 0,1.67 -0.84,0.81 -1.68,1.61 -2.53,2.4 0.82,0.28 1.76,0.54 2.26,1.32 0.91,1.51 0.32,3.76 -1.31,4.52 -1.996,0.92 -4.487,0.29 -5.947,-1.32 0.511,-0.5 1.034,-0.99 1.552,-1.49 0.776,0.75 1.813,1.42 2.946,1.14 0.949,-0.11 1.329,-1.5 0.539,-2.06 -0.709,-0.53 -1.661,-0.35 -2.483,-0.41 -0.123,-0.49 -0.24,-0.98 -0.349,-1.47 0.801,-0.77 1.591,-1.55 2.356,-2.36 -1.316,0 -2.624,0 -3.937,0 0,-0.65 0,-1.3 0,-1.95 z"
       style="fill:#e40613;stroke-width:0.35278001" />
    <path
       inkscape:connector-curvature="0"
       id="path50"
       d="m 276.83499,205.68553 c 2.45,0 4.91,0 7.34,0 0,0.69 0.11,1.45 -0.21,2.1 -1.45,2.67 -2.9,5.36 -4.34,8.04 -0.86,0 -1.73,0 -2.59,0 1.58,-2.69 3.06,-5.44 4.53,-8.18 -1.57,0 -3.15,0 -4.72,0 0,-0.65 0,-1.3 0,-1.94 z"
       style="fill:#e40613;stroke-width:0.35278001" />
  </g>
</svg>
