<?xml version="1.0" encoding="utf-8"?>
<!-- Generator: Adobe Illustrator 24.2.0, SVG Export Plug-In . SVG Version: 6.00 Build 0)  -->
<svg version="1.1" id="Calque_1" xmlns="http://www.w3.org/2000/svg" xmlns:xlink="http://www.w3.org/1999/xlink" x="0px" y="0px"
	 viewBox="0 0 182.5 363.2" style="enable-background:new 0 0 182.5 363.2;" xml:space="preserve">
<style type="text/css">
	.st0{fill:#EB0000;}
</style>
<path class="st0" d="M91.3,242.1c38.8-11.6,71.6-55.3,71.6-95.6V68.6h-13.2v77.9c0,15.8-6.1,33.1-17.2,48.6c0,0-15.7,23.8-41.2,33
	c-25.5-9.2-41.2-33-41.2-33c-11.1-15.5-17.2-32.8-17.2-48.6V68.6H19.7v77.9C19.7,186.8,52.4,230.5,91.3,242.1z"/>
<path class="st0" d="M78.2,203.8v-81.7l-16.3,9v55C66.5,192.7,72,198.6,78.2,203.8z"/>
<path class="st0" d="M107.2,161.5l14.3,23.9c-3.6,5.1-7.7,9.9-12.2,14.3l-27.3-50.5l16.2,0.1c1.2,0,2.3-0.5,3.1-1.3
	c0.9-0.9,1.3-2.1,1.3-3.3v-11.5c-0.1-2.3-1.4-4.3-3.3-5.5c-7.5-3.9-20.4-11.2-29.9-16.6c-5.2-3-8.4-8.5-8.4-14.5V84.7
	C61,75.5,68.5,68,77.8,68h28.2c7.2,0,13,5.8,13,13l0,0v7.2l-16.3,9V86.7c0-2.6-2-4.4-5.1-4.4H83.8c-2.8,0-5.1,2.3-5.1,5.1v6.8
	c0,2.2,1.2,4.3,3.1,5.4c0.2,0.1,14.5,7.5,28.4,14.9c5.4,2.9,8.8,8.5,8.8,14.7v19.6C119,148.8,119.3,159.8,107.2,161.5z"/>
<path class="st0" d="M131.1,42.5v-5.3c0-3,0.6-6,1.7-8.8l7.3-18.6h-12.9c-0.2,2.3-1.2,4.5-2.8,6.2c-2.4,2.3-6,3.1-9.6,3.1
	C105,19.1,97.7,10,97.7,0H84.9c0,10-7.4,19.1-17.2,19.1c-3.6,0-7.2-0.9-9.6-3.1c-1.6-1.7-2.6-3.9-2.8-6.2H42.4l7.3,18.6
	c1.1,2.8,1.7,5.8,1.7,8.8v5.3L131.1,42.5z M95.6,34.8c-2.9,0.4-5.8,0.4-8.6,0c-2.3-3.1-4.2-6.4-5.6-10c2.9-2.9,6.3-5.4,10-7.4l0,0
	c3.6,2,7,4.5,9.9,7.4C99.8,28.4,97.9,31.7,95.6,34.8L95.6,34.8z"/>
<g>
	<polygon class="st0" points="178.2,291.8 162.7,291.8 162.7,302.1 182.5,302.1 182.5,309.4 154.4,309.4 154.4,268.3 182.5,268.3 
		182.5,275.6 162.7,275.6 162.7,284.8 179.6,284.8 	"/>
	<path class="st0" d="M8.3,363.2H0v-40.7c5.3-0.5,10.6-0.8,15.9-0.7c11.6,0,15.5,3,15.5,13.6c0,8-2.1,11.2-8.1,12.4l9.7,15.4h-9.4
		L10.1,342H15c6.3,0,8-0.9,8-6.3c0-5.4-1.6-6.6-8-6.6H8.4L8.3,363.2L8.3,363.2z"/>
	<polygon class="st0" points="65.4,345.6 49.9,345.6 49.9,355.9 69.7,355.9 69.7,363.2 41.6,363.2 41.6,322.1 69.7,322.1 
		69.7,329.4 49.9,329.4 49.9,338.6 66.8,338.6 	"/>
	<polygon class="st0" points="79.3,363.2 79.3,326.1 87.6,321.3 87.6,363.2 	"/>
	<path class="st0" d="M136.5,363.2l-2.4-26.3l-9.9,25h-6.6l-9.8-25l-2.4,26.3h-8.4l4-41h7c1.7,0,2.3,0.4,3,2.1l9.9,25.8l9.9-25.8
		c0.6-1.7,1.3-2.1,3-2.1h7l4,41H136.5z"/>
	<path class="st0" d="M174,330.9c0-1.1-0.9-1.9-1.9-1.9h0h-9c-1.1,0-1.9,0.9-1.9,1.9v0v2.8c-0.1,1.2,0.7,2.4,1.9,2.7l11.3,4.1
		c4.4,1.5,8.1,3.6,8.1,9.6v5c0,4.4-3.6,8-8,8h-13.5c-4.4,0-8-3.6-8-8v-2.1l7.9-4.3v5.7c0,1.1,0.9,1.9,1.9,1.9h0h9.6
		c1.1,0,1.9-0.9,1.9-1.9l0,0v-2.8c0-1.9-0.9-3-2.8-3.6l-10.4-3.9c-4.5-1.6-8.1-3.8-8.1-9.9v-4.1c0-4.4,3.6-8,8-8h12.8
		c4.4,0,8,3.6,8,8v1.6l-7.9,4.3L174,330.9L174,330.9z"/>
	<polygon class="st0" points="46.5,309.4 46.5,272.8 33.2,272.8 33.2,268.3 65.8,268.3 64.7,272.8 51.6,272.8 51.5,309.4 	"/>
	<path class="st0" d="M118.6,275.5v27.1h7.8c6.4,0,8.8-4,8.8-13.5s-2.4-13.6-9.2-13.6H118.6z M143.6,289.1
		c0,14.7-4.7,20.8-17.2,20.8c0,0-9.4,0-16.2-0.6v-40.3c7.1-0.7,16.2-0.6,16.2-0.6C138.9,268.3,143.6,274.5,143.6,289.1"/>
	<path class="st0" d="M97.3,309.4l-5-13H74.2l-5,13.1H64l14.5-39.1c0.4-1.2,1.5-1.9,2.8-2h4.1c1.2,0,2.3,0.8,2.8,2l14.4,39.1
		L97.3,309.4z M90.7,291.7L84,273.1c-0.1-0.2-0.2-0.3-0.4-0.3h-0.4c-0.2,0-0.3,0.1-0.4,0.3L76,291.7L90.7,291.7z"/>
	<path class="st0" d="M6.8,309.4c-3.7,0-6.8-3-6.8-6.8v-2.2l5.1-2.8v5.3c0,1.2,1,2.1,2.1,2.1H21c1.2,0,2.1-1,2.1-2.1v-6.6
		c0-1.7-0.4-2.5-3.1-3.5L7,288.5c-4.4-1.5-6.9-3.5-6.9-8.8V275c0-3.7,3-6.8,6.8-6.8h13.8c3.7,0,6.7,3,6.7,6.8c0,0,0,0,0,0v1.8
		l-5,2.8v-4.1c0-1.6-1.3-2.9-2.9-2.9H8c-1.6,0-2.9,1.3-2.9,2.9v3.8c-0.1,1.8,1.1,3.5,2.9,4l12.9,4.2c6.1,2.2,7.4,4.8,7.4,8.5v6.6
		c0,3.7-3,6.8-6.8,6.8L6.8,309.4z"/>
</g>
</svg>
