<?xml version="1.0" encoding="UTF-8" standalone="no"?>
<svg
   xmlns:dc="http://purl.org/dc/elements/1.1/"
   xmlns:cc="http://creativecommons.org/ns#"
   xmlns:rdf="http://www.w3.org/1999/02/22-rdf-syntax-ns#"
   xmlns:svg="http://www.w3.org/2000/svg"
   xmlns="http://www.w3.org/2000/svg"
   xmlns:sodipodi="http://sodipodi.sourceforge.net/DTD/sodipodi-0.dtd"
   xmlns:inkscape="http://www.inkscape.org/namespaces/inkscape"
   inkscape:version="1.0 (4035a4f, 2020-05-01)"
   sodipodi:docname="Logo FC Girondins Bordeaux 2020.ai.svg"
   viewBox="0 0 684.92478 800"
   height="800"
   width="684.92474"
   xml:space="preserve"
   id="svg10"
   version="1.1"><metadata
     id="metadata16"><rdf:RDF><cc:Work
         rdf:about=""><dc:format>image/svg+xml</dc:format><dc:type
           rdf:resource="http://purl.org/dc/dcmitype/StillImage" /></cc:Work></rdf:RDF></metadata><defs
     id="defs14" /><sodipodi:namedview
     inkscape:current-layer="g18"
     inkscape:window-maximized="0"
     inkscape:window-y="0"
     inkscape:window-x="0"
     inkscape:cy="634.06642"
     inkscape:cx="542.86004"
     inkscape:zoom="0.45105668"
     showgrid="false"
     id="namedview12"
     inkscape:window-height="900"
     inkscape:window-width="1440"
     inkscape:pageshadow="2"
     inkscape:pageopacity="0"
     guidetolerance="10"
     gridtolerance="10"
     objecttolerance="10"
     borderopacity="1"
     bordercolor="#666666"
     pagecolor="#ffffff" /><g
     transform="matrix(1.3333333,0,0,-1.3333333,6.6666665e-4,1268.1331)"
     inkscape:label="Logo FC Girondins Bordeaux 2020"
     inkscape:groupmode="layer"
     id="g18"><path
       d="m 256.84645,951.09901 c 0,0 -146.59697,0.76713 -256.75514918,-44.79088 -0.03091159,-0.0126 -0.06057381,-0.0253 -0.0914853956,-0.0379 V 836.26821 C 0.03072701,836.25622 0.06102008,836.24508 0.09130082,836.2331 V 549.24803 h 0.6274604 C 0.09106673,548.24373 -0.14589832,546.9959 0.09130082,545.46294 2.9774339,526.83146 7.5422493,497.18861 46.025285,474.5405 L 256.84645,351.09992 467.6676,474.5405 c 38.48303,22.64811 43.04786,52.29096 45.93399,70.92244 0.23718,1.53296 2.4e-4,2.78079 -0.62747,3.78509 h 0.62747 V 836.2331 c 0.0309,0.012 0.0606,0.0231 0.0915,0.0351 v 70.00203 c -0.0309,0.0126 -0.0606,0.0253 -0.0915,0.0379 -110.15819,45.55801 -256.75514,44.79088 -256.75514,44.79088 z"
       style="fill:#0d2360;fill-opacity:1;fill-rule:nonzero;stroke:none;stroke-width:0.630847"
       id="path311" /><path
       d="M 490.8913,891.79492 C 385.36671,931.3321 256.84642,928.36963 256.84642,928.36963 v 10.74336 c 0,0 133.73047,2.45526 244.76931,-40.37432 -0.017,-7.06551 0,-352.01361 0,-352.01361 0,0 0.33625,-38.28873 -34.06583,-58.66893 -1.0573,-0.62328 -210.70348,-123.64636 -210.70348,-123.64636 v 11.98613 c 0,0 207.49057,121.62827 208.49866,122.2219 26.94734,19.40491 25.54622,48.32743 25.54622,48.32743 0,0 -0.0158,338.11853 0,344.84969"
       style="fill:#977c4a;fill-opacity:1;fill-rule:evenodd;stroke:none;stroke-width:0.630849"
       id="path38" /><path
       sodipodi:nodetypes="ccccccccccc"
       d="m 256.84642,951.0988 c 0,0 -146.59727,0.76774 -256.75544693,-44.79026 C 0.06006148,906.29592 0.03041159,906.2833 -5e-4,906.27069 v -70.00277 c 0.03091159,-0.012 0.06119233,-0.0227 0.09147307,-0.0347 V 549.24814 H 0.71866758 C 0.09097307,548.24383 -0.14622606,546.99601 0.09097307,545.46305 2.9771061,526.83156 7.5425586,497.18861 46.025594,474.54051 L 256.84642,351.09981 Z"
       style="fill:#142b72;fill-opacity:1;fill-rule:nonzero;stroke:none;stroke-width:0.630849"
       id="path42" /><g
       transform="matrix(0.63084876,0,0,0.63084876,-1.8457562e-4,351.09968)"
       id="g309"><path
         id="path34"
         style="fill:#d6d8d9;fill-opacity:1;fill-rule:nonzero;stroke:none"
         d="m 407.1445,294.0985 c 5.947,-0.016 14,6 14,6 l 294,169 c 0,0 9.007,8.199 9,-1 -0.008,-10.513 0,-132.594 0,-143 -0.065,-8.91 -2.373,-23.756 -20,-35 -18.96,-12.095 -291,-170 -291,-170 0,0 -2.879,-1.993 -6,-2 z" /><path
         id="path46"
         style="fill:#ffffff;fill-opacity:1;fill-rule:nonzero;stroke:none"
         d="m 407.1445,294.0985 c -5.947,-0.016 -14,6 -14,6 l -294,169 c 0,0 -9.007,8.199 -9,-1 0.008,-10.513 0,-132.594 0,-143 0.065,-8.91 2.373,-23.756 20,-35 18.96,-12.095 291,-170 291,-170 0,0 2.879,-1.993 6,-2 z" /></g><path
       d="M 22.801528,891.79492 C 128.32612,931.3321 256.84642,928.36963 256.84642,928.36963 v 10.74336 c 0,0 -133.73048,2.45526 -244.769321,-40.37432 0.01703,-7.06551 0,-352.01361 0,-352.01361 0,0 -0.336873,-38.28873 34.065833,-58.66893 1.057303,-0.62328 210.703488,-123.64636 210.703488,-123.64636 v 11.98613 c 0,0 -207.490575,121.62827 -208.498671,122.2219 -26.947336,19.40491 -25.546221,48.32743 -25.546221,48.32743 0,0 0.0164,338.11853 0,344.84969"
       style="fill:#b49357;fill-opacity:1;fill-rule:evenodd;stroke:none;stroke-width:0.630849"
       id="path50" /><g
       transform="matrix(0.63084876,0,0,0.63084876,-1.8457562e-4,351.09968)"
       id="g299"><path
         id="path54"
         style="fill:#b49357;fill-opacity:1;fill-rule:nonzero;stroke:none"
         d="m 205.8818,493.6542 c 4.705,4.705 7.058,10.978 7.058,18.819 v 37.639 h -26.661 v -17.565 h 7.841 v -21.329 c 0,-2.092 -0.654,-3.791 -1.96,-5.097 -1.309,-1.308 -3.007,-1.96 -5.097,-1.96 -2.093,0 -3.791,0.652 -5.097,1.96 -1.309,1.306 -1.96,3.005 -1.96,5.097 v 74.65 c 0,2.09 0.651,3.788 1.96,5.097 1.306,1.306 3.004,1.96 5.097,1.96 2.09,0 3.788,-0.654 5.097,-1.96 1.306,-1.309 1.96,-3.007 1.96,-5.097 v -15.369 h 18.82 v 14.114 c 0,7.736 -2.38,13.982 -7.136,18.741 -4.759,4.757 -11.005,7.136 -18.741,7.136 -7.842,0 -14.115,-2.353 -18.819,-7.057 -4.705,-4.705 -7.057,-10.978 -7.057,-18.82 v -72.14 c 0,-7.738 2.376,-13.985 7.135,-18.741 4.756,-4.759 11.002,-7.136 18.741,-7.136 7.841,0 14.114,2.353 18.819,7.058" /><path
         d="M 241.951,608.138 H 223.132 V 488.95 h 18.819 z"
         style="fill:#b49357;fill-opacity:1;fill-rule:nonzero;stroke:none"
         id="path56" /><path
         id="path60"
         style="fill:#b49357;fill-opacity:1;fill-rule:nonzero;stroke:none"
         d="m 272.5308,590.5731 h 7.057 c 2.09,0 3.789,-0.654 5.097,-1.96 1.306,-1.309 1.96,-3.007 1.96,-5.097 v -26.033 c 0,-2.093 -0.654,-3.791 -1.96,-5.098 -1.308,-1.308 -3.007,-1.96 -5.097,-1.96 h -7.057 z m 0,-101.624 v 43.912 h 2.979 l 13.488,-43.912 h 19.603 l -14.585,47.675 c 7.631,4.494 11.449,11.866 11.449,22.113 v 23.524 c 0,7.736 -2.38,13.982 -7.136,18.741 -4.759,4.756 -11.005,7.135 -18.741,7.135 h -25.876 v -119.188 z" /><path
         id="path64"
         style="fill:#b49357;fill-opacity:1;fill-rule:nonzero;stroke:none"
         d="m 333.6919,511.2186 v 74.65 c 0,2.09 0.652,3.788 1.96,5.097 1.306,1.306 3.004,1.96 5.097,1.96 2.09,0 3.788,-0.654 5.097,-1.96 1.306,-1.309 1.96,-3.007 1.96,-5.097 v -74.65 c 0,-2.093 -0.654,-3.791 -1.96,-5.097 -1.309,-1.308 -3.007,-1.96 -5.097,-1.96 -2.093,0 -3.791,0.652 -5.097,1.96 -1.308,1.306 -1.96,3.004 -1.96,5.097 m 25.876,-17.564 c 4.705,4.704 7.058,10.977 7.058,18.818 v 72.141 c 0,7.736 -2.38,13.982 -7.136,18.741 -4.759,4.756 -11.005,7.135 -18.741,7.135 -7.841,0 -14.114,-2.352 -18.819,-7.057 -4.705,-4.705 -7.057,-10.978 -7.057,-18.819 v -72.141 c 0,-7.738 2.377,-13.984 7.135,-18.74 4.757,-4.759 11.003,-7.136 18.741,-7.136 7.841,0 14.114,2.352 18.819,7.058" /><path
         id="path68"
         style="fill:#b49357;fill-opacity:1;fill-rule:nonzero;stroke:none"
         d="m 395.6372,488.9491 v 57.869 l 20.387,-57.869 h 15.683 v 119.188 h -18.819 v -58.339 l -20.544,58.339 h -15.526 v -119.188 z" /><path
         id="path72"
         style="fill:#b49357;fill-opacity:1;fill-rule:nonzero;stroke:none"
         d="m 462.2861,590.5731 h 7.058 c 2.089,0 3.788,-0.654 5.096,-1.96 1.306,-1.309 1.96,-3.007 1.96,-5.097 v -69.945 c 0,-2.093 -0.654,-3.791 -1.96,-5.097 -1.308,-1.309 -3.007,-1.96 -5.096,-1.96 h -7.058 z m 7.058,-101.624 c 7.84,0 14.114,2.353 18.819,7.057 4.704,4.705 7.057,10.978 7.057,18.819 v 67.436 c 0,7.736 -2.379,13.982 -7.136,18.741 -4.758,4.756 -11.004,7.135 -18.74,7.135 h -25.877 v -119.188 z" /><path
         d="M 524.231,608.138 H 505.412 V 488.95 h 18.819 z"
         style="fill:#b49357;fill-opacity:1;fill-rule:nonzero;stroke:none"
         id="path74" /><path
         id="path78"
         style="fill:#b49357;fill-opacity:1;fill-rule:nonzero;stroke:none"
         d="m 554.8105,488.9491 v 57.869 l 20.388,-57.869 h 15.682 v 119.188 h -18.819 v -58.339 l -20.544,58.339 h -15.526 v -119.188 z" /><path
         id="path82"
         style="fill:#b49357;fill-opacity:1;fill-rule:nonzero;stroke:none"
         d="m 644.9834,493.6542 c 4.705,4.705 7.058,10.978 7.058,18.819 v 9.41 c 0,5.332 -1.125,10.272 -3.372,14.82 -2.249,4.548 -4.994,8.39 -8.234,11.527 -3.241,3.136 -6.483,6.14 -9.723,9.017 -3.242,2.874 -5.986,5.96 -8.233,9.253 -2.25,3.293 -3.372,6.717 -3.372,10.272 v 9.096 c 0,2.09 0.651,3.788 1.96,5.097 1.307,1.306 3.005,1.96 5.098,1.96 2.089,0 3.788,-0.654 5.096,-1.96 1.306,-1.309 1.96,-3.007 1.96,-5.097 v -15.369 h 18.82 v 14.114 c 0,7.736 -2.379,13.982 -7.136,18.741 -4.759,4.757 -11.005,7.136 -18.74,7.136 -7.842,0 -14.116,-2.353 -18.82,-7.057 -4.705,-4.705 -7.057,-10.978 -7.057,-18.82 v -9.409 c 0,-5.332 1.122,-10.272 3.372,-14.821 2.247,-4.547 4.991,-8.39 8.233,-11.526 3.239,-3.137 6.482,-6.143 9.723,-9.017 3.24,-2.877 5.984,-5.96 8.233,-9.253 2.247,-3.294 3.372,-6.72 3.372,-10.272 v -9.097 c 0,-2.092 -0.654,-3.791 -1.96,-5.097 -1.308,-1.308 -3.007,-1.96 -5.096,-1.96 -2.093,0 -3.791,0.652 -5.098,1.96 -1.309,1.306 -1.96,3.005 -1.96,5.097 v 15.37 h -18.819 v -14.115 c 0,-7.738 2.377,-13.985 7.135,-18.741 4.756,-4.759 11.002,-7.136 18.742,-7.136 7.84,0 14.114,2.353 18.818,7.058" /></g><g
       transform="matrix(0.63084876,0,0,0.63084876,-1.8457562e-4,351.09968)"
       id="g305"><path
         id="path86"
         style="fill:#ffffff;fill-opacity:1;fill-rule:evenodd;stroke:none"
         d="m 464.1445,441.0985 h 20 v -61 h -11 v 51 h -9 z" /><path
         id="path90"
         style="fill:#ffffff;fill-opacity:1;fill-rule:evenodd;stroke:none"
         d="m 325.1445,441.0985 h 20 v -61 h -11 v 51 h -9 z" /><path
         id="path94"
         style="fill:#ffffff;fill-opacity:1;fill-rule:evenodd;stroke:none"
         d="m 380.0195,388.0985 c -5.247,0 -9.5,4.253 -9.5,9.5 0,5.247 4.253,9.5 9.5,9.5 5.247,0 9.5,-4.253 9.5,-9.5 0,-5.247 -4.253,-9.5 -9.5,-9.5 m 0,46 c 4.418,0 8,-3.582 8,-8 0,-4.418 -3.582,-8 -8,-8 -4.418,0 -8,3.582 -8,8 0,4.418 3.582,8 8,8 m 14.216,-20.575 c 2.968,3.351 4.784,7.746 4.784,12.575 0,10.493 -8.507,19 -19,19 -10.493,0 -19,-8.507 -19,-19 0,-4.829 1.816,-9.224 4.784,-12.575 -4.161,-3.838 -6.784,-9.319 -6.784,-15.425 0,-11.598 9.402,-21 21,-21 11.598,0 21,9.402 21,21 0,6.106 -2.623,11.587 -6.784,15.425" /><path
         id="path98"
         style="fill:#ffffff;fill-opacity:1;fill-rule:evenodd;stroke:none"
         d="m 434.0195,388.0985 c -5.247,0 -9.5,4.253 -9.5,9.5 0,5.247 4.253,9.5 9.5,9.5 5.247,0 9.5,-4.253 9.5,-9.5 0,-5.247 -4.253,-9.5 -9.5,-9.5 m 0,46 c 4.418,0 8,-3.582 8,-8 0,-4.418 -3.582,-8 -8,-8 -4.418,0 -8,3.582 -8,8 0,4.418 3.582,8 8,8 m 14.216,-20.575 c 2.968,3.351 4.784,7.746 4.784,12.575 0,10.493 -8.507,19 -19,19 -10.493,0 -19,-8.507 -19,-19 0,-4.829 1.816,-9.224 4.784,-12.575 -4.161,-3.838 -6.784,-9.319 -6.784,-15.425 0,-11.598 9.402,-21 21,-21 11.598,0 21,9.402 21,21 0,6.106 -2.622,11.587 -6.784,15.425" /></g><g
       transform="matrix(0.63084876,0,0,0.63084876,-1.8457562e-4,351.09968)"
       id="g288"><path
         id="path102"
         style="fill:#ffffff;fill-opacity:1;fill-rule:nonzero;stroke:none"
         d="m 664.415,642.3905 22.491,65.66 22.491,-65.66 h 18.743 l -31.752,93.1 28.444,83.3 H 706.09 l -19.184,-56.105 -19.183,56.105 H 648.98 l 28.445,-83.3 -31.752,-93.1 z" /><path
         id="path106"
         style="fill:#ffffff;fill-opacity:1;fill-rule:nonzero;stroke:none"
         d="m 635.8789,674.2406 v 144.55 h -17.641 v -146.51 c 0,-4.739 -1.322,-8.575 -3.968,-11.515 -2.646,-2.94 -6.102,-4.41 -10.364,-4.41 -4.265,0 -7.717,1.47 -10.363,4.41 -2.646,2.94 -3.97,6.776 -3.97,11.515 v 146.51 h -17.639 v -144.55 c 0,-10.619 2.938,-19.194 8.82,-25.725 5.877,-6.534 13.595,-9.8 23.152,-9.8 9.554,0 17.272,3.266 23.153,9.8 5.878,6.531 8.82,15.106 8.82,25.725" /><path
         id="path110"
         style="fill:#ffffff;fill-opacity:1;fill-rule:nonzero;stroke:none"
         d="m 522.8037,801.1508 h 2.205 l 11.466,-99.225 h -25.137 z m -18.302,-158.76 4.851,41.895 h 29.106 l 4.851,-41.895 h 17.64 l -22.27,176.4 h -29.547 l -22.27,-176.4 z" /><path
         id="path114"
         style="fill:#ffffff;fill-opacity:1;fill-rule:nonzero;stroke:none"
         d="m 477.5322,642.3905 v 17.64 h -41.896 v 61.74 h 33.076 v 17.64 h -33.076 v 61.74 h 41.896 v 17.64 h -59.535 v -176.4 z" /><path
         id="path118"
         style="fill:#ffffff;fill-opacity:1;fill-rule:nonzero;stroke:none"
         d="m 353.6763,801.1508 h 14.333 c 4.261,0 7.717,-1.47 10.363,-4.41 2.646,-2.94 3.969,-6.779 3.969,-11.515 v -109.27 c 0,-4.739 -1.323,-8.575 -3.969,-11.515 -2.646,-2.94 -6.102,-4.41 -10.363,-4.41 h -14.333 z m 14.333,-158.76 c 9.553,0 17.271,3.265 23.152,9.8 5.878,6.531 8.82,15.106 8.82,25.725 v 105.35 c 0,10.615 -2.942,19.19 -8.82,25.725 -5.881,6.531 -13.599,9.8 -23.152,9.8 h -31.973 v -176.4 z m -31.752,181.3 h -0.221 v -0.245 z" /><path
         id="path122"
         style="fill:#ffffff;fill-opacity:1;fill-rule:nonzero;stroke:none"
         d="m 270.1245,801.1508 h 14.333 c 4.261,0 7.717,-1.47 10.363,-4.41 2.646,-2.94 3.969,-6.779 3.969,-11.515 v -40.67 c 0,-4.739 -1.323,-8.575 -3.969,-11.515 -2.646,-2.94 -6.102,-4.41 -10.363,-4.41 h -14.333 z m 0,-158.76 v 68.6 h 11.907 l 18.742,-68.6 h 18.522 l -19.845,72.03 c 11.318,5.715 16.979,16.415 16.979,32.095 v 36.75 c 0,10.615 -2.943,19.19 -8.82,25.725 -5.881,6.531 -13.599,9.8 -23.152,9.8 h -31.973 v -176.4 z" /><path
         id="path126"
         style="fill:#ffffff;fill-opacity:1;fill-rule:nonzero;stroke:none"
         d="m 187.9507,671.6273 v 116.62 c 0,4.735 1.323,8.575 3.969,11.515 2.646,2.94 6.098,4.41 10.364,4.41 4.261,0 7.717,-1.47 10.363,-4.41 2.646,-2.94 3.969,-6.78 3.969,-11.515 v -116.62 c 0,-4.739 -1.323,-8.575 -3.969,-11.515 -2.646,-2.94 -6.102,-4.41 -10.363,-4.41 -4.266,0 -7.718,1.47 -10.364,4.41 -2.646,2.94 -3.969,6.776 -3.969,11.515 m 46.305,1.96 v 112.7 c 0,10.615 -2.942,19.191 -8.82,25.725 -5.881,6.531 -13.599,9.8 -23.152,9.8 -9.558,0 -17.275,-3.269 -23.153,-9.8 -5.881,-6.534 -8.82,-15.11 -8.82,-25.725 v -112.7 c 0,-10.619 2.939,-19.194 8.82,-25.725 5.878,-6.534 13.595,-9.8 23.153,-9.8 9.553,0 17.271,3.266 23.152,9.8 5.878,6.531 8.82,15.106 8.82,25.725" /><path
         id="path130"
         style="fill:#ffffff;fill-opacity:1;fill-rule:nonzero;stroke:none"
         d="m 107.3857,721.1176 h 14.333 c 4.261,0 7.717,-1.47 10.363,-4.41 2.646,-2.94 3.969,-6.78 3.969,-11.515 v -29.89 c 0,-4.739 -1.323,-8.575 -3.969,-11.515 -2.646,-2.94 -6.102,-4.41 -10.363,-4.41 h -14.333 z m 0,79.38 h 14.333 c 4.261,0 7.717,-1.47 10.363,-4.41 2.646,-2.94 3.969,-6.78 3.969,-11.515 v -29.89 c 0,-4.739 -1.323,-8.575 -3.969,-11.515 -2.646,-2.94 -6.102,-4.41 -10.363,-4.41 h -14.333 z m 14.333,-158.76 c 9.553,0 17.271,3.265 23.152,9.8 5.877,6.531 8.82,15.106 8.82,25.725 v 23.275 c 0,13.23 -4.265,23.03 -12.789,29.4 8.524,6.37 12.789,16.17 12.789,29.4 v 23.275 c 0,10.615 -2.943,19.19 -8.82,25.725 -5.881,6.53 -13.599,9.8 -23.152,9.8 h -31.973 v -176.4 z" /></g></g></svg>
